<svg width="30" height="30" viewBox="0 0 30 30" fill="none" xmlns="http://www.w3.org/2000/svg">
<rect width="30" height="30" fill="url(#paint0_linear_177_933)"/>
<path opacity="0.2" d="M17.9068 12.7982C17.8015 12.7982 17.6963 12.7595 17.6141 12.6815C17.4432 12.5196 17.436 12.2499 17.5974 12.079C17.7159 11.9542 20.5161 9.00699 22.1343 8.18381C22.3439 8.07729 22.6009 8.1608 22.7074 8.37043C22.8139 8.58006 22.7304 8.83656 22.5208 8.94351C21.0333 9.6998 18.2447 12.635 18.2165 12.6644C18.1326 12.7539 18.0201 12.7982 17.9068 12.7982Z" fill="#231F20"/>
<path d="M17.9068 11.52C17.9068 11.52 20.7564 8.51105 22.3273 7.71173Z" fill="#E0E0D1"/>
<path d="M17.9068 11.9461C17.8015 11.9461 17.6963 11.9074 17.6141 11.8298C17.4432 11.6679 17.436 11.3982 17.5974 11.2273C17.7159 11.1021 20.5161 8.15532 22.1343 7.33213C22.3448 7.22647 22.6004 7.3087 22.7074 7.51876C22.8139 7.72839 22.7304 7.98489 22.5208 8.09183C21.0333 8.84769 18.2447 11.7834 18.2165 11.8128C18.1326 11.9018 18.0201 11.9461 17.9068 11.9461Z" fill="#E0E0D1"/>
<path opacity="0.2" d="M18.8705 21.6248C21.4071 18.8424 21.2078 14.5306 18.4254 11.994C15.643 9.45752 11.3312 9.65683 8.79464 12.4392C6.25812 15.2216 6.45743 19.5334 9.23981 22.0699C12.0222 24.6065 16.334 24.4072 18.8705 21.6248Z" fill="#231F20"/>
<path opacity="0.2" d="M18.4598 15.3534C17.9843 15.875 17.3128 16.0373 16.9604 15.716L14.833 13.7761C14.4807 13.4548 14.5804 12.7714 15.0559 12.2495L16.7781 10.3602C17.2536 9.83872 17.9251 9.67638 18.2774 9.99765L20.4048 11.9376C20.7572 12.2588 20.6575 12.9423 20.182 13.4642L18.4598 15.3534Z" fill="#231F20"/>
<path d="M18.4598 14.5013C17.9843 15.0229 17.3128 15.1852 16.9604 14.8639L14.833 12.924C14.4807 12.6027 14.5804 11.9193 15.0559 11.3974L16.7781 9.50813C17.2536 8.98661 17.9251 8.82427 18.2774 9.14554L20.4048 11.0855C20.7572 11.4067 20.6575 12.0902 20.182 12.6121L18.4598 14.5013Z" fill="#48556A"/>
<path d="M18.8705 20.7726C21.407 17.9902 21.2077 13.6784 18.4253 11.1419C15.643 8.60535 11.3311 8.80466 8.79461 11.587C6.25809 14.3694 6.4574 18.6812 9.23978 21.2178C12.0222 23.7543 16.334 23.555 18.8705 20.7726Z" fill="#4F5D73"/>
<path d="M20.182 12.6121C20.6575 12.0901 20.7572 11.4067 20.4049 11.0854L19.2171 10.0023C18.9076 10.5139 18.6514 10.6864 18.0934 10.8545L19.7375 13.0997L20.182 12.6121Z" fill="#414D5F"/>
<path d="M18.8705 20.7726C21.407 17.9902 21.2077 13.6784 18.4253 11.1419L18.0934 10.8545C18.5195 14.4051 17.5336 21.6123 10.2051 21.9532L10.3232 22.0259C13.0502 23.6669 16.6442 23.2147 18.8705 20.7726Z" fill="#455061"/>
<g filter="url(#filter0_d_177_933)">
<path d="M20.2238 8.08501C20.2238 9.02627 21.0759 9.78933 21.9281 9.78932C22.9933 9.78932 24.3323 8.861 24.2715 8.51109C24.1976 8.08501 23.3127 8.40406 23.2063 8.08501C22.9933 7.4459 25.1744 6.76004 24.9106 6.3807C24.6028 5.93806 22.9933 5.90134 21.9281 6.16766C21.1962 6.35064 20.2238 7.14374 20.2238 8.08501Z" fill="#C75C5C"/>
</g>
<path d="M21.0759 8.08501C21.0759 8.51111 21.289 8.93719 21.9281 8.93718C22.6894 8.93716 22.9213 8.79616 22.9933 8.72415C23.2063 8.51114 22.3542 8.51111 22.3542 7.87197C22.3542 7.52979 22.7802 7.23287 22.9933 7.01982C23.0868 6.92626 22.5939 6.7345 21.9281 7.01984C21.1609 7.34863 21.0759 7.90548 21.0759 8.08501Z" fill="#F5CF87"/>
<defs>
<filter id="filter0_d_177_933" x="20.2238" y="6" width="5.70905" height="4.78931" filterUnits="userSpaceOnUse" color-interpolation-filters="sRGB">
<feFlood flood-opacity="0" result="BackgroundImageFix"/>
<feColorMatrix in="SourceAlpha" type="matrix" values="0 0 0 0 0 0 0 0 0 0 0 0 0 0 0 0 0 0 127 0" result="hardAlpha"/>
<feOffset dx="1" dy="1"/>
<feComposite in2="hardAlpha" operator="out"/>
<feColorMatrix type="matrix" values="0 0 0 0 1 0 0 0 0 0.68375 0 0 0 0 0.3125 0 0 0 0.12 0"/>
<feBlend mode="normal" in2="BackgroundImageFix" result="effect1_dropShadow_177_933"/>
<feBlend mode="normal" in="SourceGraphic" in2="effect1_dropShadow_177_933" result="shape"/>
</filter>
<linearGradient id="paint0_linear_177_933" x1="0" y1="0" x2="30" y2="30" gradientUnits="userSpaceOnUse">
<stop stop-color="#FFBA07"/>
<stop offset="1" stop-color="#F12121"/>
</linearGradient>
</defs>
</svg>
