<svg width="30" height="30" viewBox="0 0 30 30" fill="none" xmlns="http://www.w3.org/2000/svg">
<rect width="30" height="30" fill="url(#paint0_linear_177_928)"/>
<path d="M17.9152 14.3523C17.9152 14.8731 17.6868 15.2766 17.23 15.5626C16.8039 15.8332 16.3291 15.9235 15.8055 15.8335C15.4103 15.7656 14.9791 15.5379 14.512 15.1503L14.5351 20.3418L13.1415 20.1023V16.0007C13.1415 14.1414 12.9233 12.5726 12.487 11.2945L13.819 11.0859L14.3734 13.4859C14.512 14.0982 14.8534 14.4511 15.3975 14.5446C15.7773 14.6099 16.0725 14.507 16.2829 14.2359C16.4318 14.0427 16.4934 13.8371 16.4677 13.6192L16.2444 11.9011C16.5267 11.8559 16.9554 11.7915 17.5303 11.708C17.7869 13.0334 17.9152 13.9148 17.9152 14.3523Z" fill="white"/>
<path fill-rule="evenodd" clip-rule="evenodd" d="M6.88675 6C6.61061 6 6.38675 6.22386 6.38675 6.5V12H8.7735L6.38675 16.134V21.5C6.38675 21.7761 6.61061 22 6.88675 22L23.3868 25C23.6629 25 23.8868 24.7761 23.8868 24.5V19H21.5L23.8868 14.866V9.5C23.8868 9.22386 23.6629 9 23.3868 9L6.88675 6ZM24.8868 14.866V9.5C24.8868 8.67157 24.2152 8 23.3868 8L6.88675 5C6.05832 5 5.38675 5.67157 5.38675 6.5V12H3L5.38675 16.134V21.5C5.38675 22.3284 6.05832 23 6.88675 23L23.3868 26C24.2152 26 24.8868 25.3284 24.8868 24.5V19H27.2735L24.8868 14.866Z" fill="white"/>
<defs>
<linearGradient id="paint0_linear_177_928" x1="0" y1="0" x2="30" y2="30" gradientUnits="userSpaceOnUse">
<stop stop-color="#8049F7"/>
<stop offset="1" stop-color="#ED21F1"/>
</linearGradient>
</defs>
</svg>
