<svg width="30" height="30" viewBox="0 0 30 30" fill="none" xmlns="http://www.w3.org/2000/svg">
<rect width="30" height="30" fill="url(#paint0_linear_177_566)"/>
<path d="M8.83649 23.264H15.1005V7.39227H8.83649C9.35552 9.61988 11.6333 12.7661 13.2112 14.49C13.6671 14.9887 13.6654 15.5236 13.2087 16.0215C11.628 17.742 9.35552 21.0364 8.83649 23.264Z" fill="white"/>
<path d="M15.1005 23.264H8.37006C8.11556 23.264 8 23.4528 8 23.7073V24.1678C8 24.4229 8.11556 24.6562 8.37006 24.6562H15.1005V23.264Z" fill="white"/>
<path d="M15.1005 6H8.46084C8.20633 6 8 6.20605 8 6.46056V6.93142C8 7.18593 8.20633 7.39198 8.46084 7.39198H15.1005V6Z" fill="white"/>
<path d="M16.8965 14.4499C18.4748 12.7296 20.747 9.61988 21.266 7.39227H15.054V23.264H21.2657C20.747 21.0364 18.4692 17.8 16.8932 16.0755C16.4382 15.5754 16.4396 14.9475 16.8965 14.4499Z" fill="#E4E8DC"/>
<path d="M21.7324 23.264H15.054V24.6562H21.7324C21.9866 24.6562 22.201 24.4229 22.201 24.1678V23.7073C22.201 23.4525 21.9866 23.264 21.7324 23.264Z" fill="#E4E8DC"/>
<path d="M21.7402 6H15.054V7.39226H21.7399C21.9944 7.39226 22.2008 7.1862 22.2008 6.9317V6.46084C22.201 6.20605 21.9947 6 21.7402 6Z" fill="#E4E8DC"/>
<path d="M15.1651 18.6269C15.1236 18.6116 15.0871 18.6019 15.061 18.6019C14.5364 18.6019 11.6619 20.9773 10.393 23.242H15.1651V18.6269V18.6269Z" fill="#EAD57D"/>
<path d="M15.0571 23.242H19.7094C18.4171 20.9773 15.5157 18.6019 15.0612 18.6019C15.0601 18.6019 15.0585 18.6024 15.0573 18.6024V23.242H15.0571Z" fill="#D6C169"/>
<path d="M17.6247 11.2906H15.0479H14.9883H12.4775C13.1502 12.4698 14.6826 13.7023 14.961 13.8404V13.8117C14.961 13.8198 15.0309 13.7964 15.0454 13.7964C15.0459 13.7964 14.961 13.7964 14.961 13.7964V13.8248C15.2397 13.82 16.9249 12.5394 17.6247 11.2906Z" fill="#EAD57D"/>
<path d="M15.0451 11.2906V13.8C15.4748 13.6368 16.9731 12.4531 17.6247 11.2906H15.0451Z" fill="#D6C169"/>
<defs>
<linearGradient id="paint0_linear_177_566" x1="0" y1="0" x2="30" y2="30" gradientUnits="userSpaceOnUse">
<stop stop-color="#00F0FF"/>
<stop offset="1" stop-color="#1549FF"/>
</linearGradient>
</defs>
</svg>
