<svg width="12" height="10" viewBox="0 0 12 10" fill="none" xmlns="http://www.w3.org/2000/svg">
<mask id="mask0_43_448" style="mask-type:alpha" maskUnits="userSpaceOnUse" x="0" y="4" width="12" height="6">
<path d="M1.9145 8.93668C0.837274 8.26831 3.8147e-06 7.23429 3.8147e-06 5.95V4.15H12V5.95C12 7.23429 11.1627 8.26831 10.0855 8.93668C8.99733 9.61185 7.5504 10 6 10C4.44961 10 3.00268 9.61185 1.9145 8.93668Z" fill="#B9951F"/>
</mask>
<g mask="url(#mask0_43_448)">
<rect x="3.8147e-06" y="3.70001" width="0.923077" height="6.3" fill="#D5A217"/>
<rect x="0.92308" y="3.70001" width="1.84615" height="6.3" fill="#AE8217"/>
<rect x="2.76923" y="3.70001" width="1.84615" height="6.3" fill="#D5A217"/>
<rect x="4.61539" y="3.70001" width="2.76923" height="6.3" fill="#AE8217"/>
<rect x="7.38462" y="3.70001" width="1.84615" height="6.3" fill="#D5A217"/>
<rect x="9.23077" y="3.70001" width="1.84615" height="6.3" fill="#AE8217"/>
<rect x="11.0769" y="3.70001" width="0.923077" height="6.3" fill="#D5A217"/>
</g>
<path d="M6 8C2.68629 8 -9.21752e-08 6.20914 0 4C9.21752e-08 1.79086 2.68629 -1.51744e-07 6 0C9.31371 1.51744e-07 12 1.79086 12 4C12 6.20914 9.31371 8 6 8Z" fill="#FFD45E"/>
<path fill-rule="evenodd" clip-rule="evenodd" d="M1.93497 6.96589C0.862871 6.31653 -1.177e-07 5.29408 0 4C5.88502e-08 2.70592 0.862871 1.68347 1.93497 1.0341C3.02194 0.375735 4.46168 -1.149e-07 6 0C7.53832 5.74503e-08 8.97807 0.375736 10.065 1.03411C11.1371 1.68347 12 2.70592 12 4C12 5.29408 11.1371 6.31653 10.065 6.9659C8.97807 7.62426 7.53832 8 6 8C4.46168 8 3.02193 7.62426 1.93497 6.96589ZM0.987342 4C0.987342 5.67682 3.23159 7.03614 6 7.03614C8.76841 7.03614 11.0127 5.67682 11.0127 4C11.0127 2.32318 8.76841 0.963855 6 0.963855C3.23159 0.963855 0.987342 2.32318 0.987342 4Z" fill="#EBBA16"/>
<path fill-rule="evenodd" clip-rule="evenodd" d="M1.93497 6.96589C0.862871 6.31653 -1.177e-07 5.29408 0 4C5.88502e-08 2.70592 0.862871 1.68347 1.93497 1.0341C3.02194 0.375735 4.46168 -1.149e-07 6 0C7.53832 5.74503e-08 8.97807 0.375736 10.065 1.03411C11.1371 1.68347 12 2.70592 12 4C12 5.29408 11.1371 6.31653 10.065 6.9659C8.97807 7.62426 7.53832 8 6 8C4.46168 8 3.02193 7.62426 1.93497 6.96589ZM0.987342 4C0.987342 5.67682 3.23159 7.03614 6 7.03614C8.76841 7.03614 11.0127 5.67682 11.0127 4C11.0127 2.32318 8.76841 0.963855 6 0.963855C3.23159 0.963855 0.987342 2.32318 0.987342 4Z" fill="#EBBA16"/>
</svg>
