<svg width="360" height="746" viewBox="0 0 360 746" fill="none" xmlns="http://www.w3.org/2000/svg">
<g clip-path="url(#clip0_48_650)">
<rect width="360" height="746" fill="#B0CFD1"/>
<path d="M79 194.5H120C125.247 194.5 129.5 198.753 129.5 204C129.5 209.247 125.247 213.5 120 213.5H90C85.8579 213.5 82.5 216.858 82.5 221C82.5 225.142 79.1421 228.5 75 228.5H47C43.6863 228.5 41 231.186 41 234.5C41 237.814 38.3137 240.5 35 240.5H0V33.5H33.25C37.5302 33.5 41 36.9698 41 41.25C41 45.5302 44.4698 49 48.75 49H90.5C95.4706 49 99.5 53.0294 99.5 58C99.5 62.9706 103.529 67 108.5 67H182.287C187.375 67 191.5 71.1247 191.5 76.2127C191.5 81.3298 187.33 85.4664 182.213 85.4251L141.548 85.0972C134.91 85.0436 129.5 90.41 129.5 97.0484C129.5 103.649 124.149 109 117.548 109H98C93.8579 109 90.5 112.358 90.5 116.5C90.5 120.642 93.8579 124 98 124H103.25C107.53 124 111 127.47 111 131.75C111 136.03 114.47 139.5 118.75 139.5H152.25C157.082 139.5 161 143.418 161 148.25C161 153.082 157.082 157 152.25 157H140.75C134.537 157 129.5 162.037 129.5 168.25C129.5 174.463 124.463 179.5 118.25 179.5H79C74.8579 179.5 71.5 182.858 71.5 187C71.5 191.142 74.8579 194.5 79 194.5Z" fill="url(#paint0_linear_48_650)"/>
<path d="M79 765H120C125.247 765 129.5 769.253 129.5 774.5C129.5 779.747 125.247 784 120 784H90C85.8579 784 82.5 787.358 82.5 791.5C82.5 795.642 79.1421 799 75 799H47C43.6863 799 41 801.686 41 805C41 808.314 38.3137 811 35 811H0V604H33.25C37.5302 604 41 607.47 41 611.75C41 616.03 44.4698 619.5 48.75 619.5H90.5C95.4706 619.5 99.5 623.529 99.5 628.5C99.5 633.471 103.529 637.5 108.5 637.5H182.287C187.375 637.5 191.5 641.625 191.5 646.713C191.5 651.83 187.33 655.966 182.213 655.925L141.548 655.597C134.91 655.544 129.5 660.91 129.5 667.548C129.5 674.149 124.149 679.5 117.548 679.5H98C93.8579 679.5 90.5 682.858 90.5 687C90.5 691.142 93.8579 694.5 98 694.5H103.25C107.53 694.5 111 697.97 111 702.25C111 706.53 114.47 710 118.75 710H152.25C157.082 710 161 713.918 161 718.75C161 723.582 157.082 727.5 152.25 727.5H140.75C134.537 727.5 129.5 732.537 129.5 738.75C129.5 744.963 124.463 750 118.25 750H79C74.8579 750 71.5 753.358 71.5 757.5C71.5 761.642 74.8579 765 79 765Z" fill="url(#paint1_linear_48_650)"/>
<path d="M70.75 353H0V513H66.5C72.5751 513 77.5 508.075 77.5 502C77.5 495.925 72.5751 491 66.5 491H60.75C55.9175 491 52 487.082 52 482.25C52 477.418 55.9175 473.5 60.75 473.5H99C107.008 473.5 113.5 467.008 113.5 459C113.5 450.992 107.008 444.5 99 444.5H84C79.5817 444.5 76 440.918 76 436.5C76 432.082 79.5817 428.5 84 428.5H94.5C98.366 428.5 101.5 425.366 101.5 421.5C101.5 417.634 98.366 414.5 94.5 414.5H70.25C66.2459 414.5 63 411.254 63 407.25C63 403.246 66.2459 400 70.25 400H120.75C125.859 400 130 395.859 130 390.75C130 385.641 125.859 381.5 120.75 381.5H99.25C91.3799 381.5 85 375.12 85 367.25C85 359.38 78.6201 353 70.75 353Z" fill="url(#paint2_linear_48_650)"/>
<path d="M295.25 248H205.25C199.589 248 195 243.411 195 237.75C195 232.089 199.589 227.5 205.25 227.5H267.5C272.885 227.5 277.25 223.135 277.25 217.75C277.25 212.365 281.615 208 287 208H359.5V386H324.75C319.365 386 315 381.635 315 376.25C315 370.865 310.635 366.5 305.25 366.5H279C274.306 366.5 270.5 362.694 270.5 358C270.5 353.306 266.694 349.5 262 349.5H227.75C221.261 349.5 216 344.239 216 337.75C216 331.261 221.261 326 227.75 326H279.25C284.082 326 288 322.082 288 317.25C288 312.418 284.082 308.5 279.25 308.5H238C233.029 308.5 229 304.471 229 299.5C229 294.529 233.029 290.5 238 290.5H307.75C311.202 290.5 314 287.702 314 284.25C314 280.798 311.202 278 307.75 278H266.25C261.694 278 258 274.306 258 269.75C258 265.194 261.694 261.5 266.25 261.5H295.25C298.978 261.5 302 258.478 302 254.75C302 251.022 298.978 248 295.25 248Z" fill="url(#paint3_linear_48_650)"/>
<path d="M187.5 290.5H202.5C207.471 290.5 211.5 294.529 211.5 299.5C211.5 304.471 207.471 308.5 202.5 308.5H187.5C182.529 308.5 178.5 304.471 178.5 299.5C178.5 294.529 182.529 290.5 187.5 290.5Z" fill="url(#paint4_linear_48_650)"/>
<path d="M258.436 509.929H287.497C292.31 509.929 296.212 506.027 296.212 501.214C296.212 496.402 300.113 492.5 304.926 492.5H326.106V480H360V614.5H323.407C318.594 614.5 314.692 610.598 314.692 605.786C314.692 600.973 310.791 597.071 305.978 597.071H286.44C281.959 597.071 278.327 593.439 278.327 588.958C278.327 584.477 274.694 580.845 270.214 580.845H243.212C239.229 580.845 236 577.616 236 573.633C236 569.65 239.229 566.421 243.212 566.421H286.896C292.041 566.421 296.212 562.251 296.212 557.106C296.212 551.961 292.041 547.791 286.896 547.791H277.207C272.228 547.791 268.192 543.755 268.192 538.776C268.192 533.797 264.156 529.761 259.178 529.761H258.356C252.923 529.761 248.519 525.317 248.519 519.885C248.519 514.408 252.959 509.929 258.436 509.929Z" fill="url(#paint5_linear_48_650)"/>
<path d="M189.712 566.421H215.788C219.771 566.421 223 569.65 223 573.633C223 577.616 219.771 580.845 215.788 580.845H189.712C185.729 580.845 182.5 577.616 182.5 573.633C182.5 569.65 185.729 566.421 189.712 566.421Z" fill="url(#paint6_linear_48_650)"/>
</g>
<defs>
<linearGradient id="paint0_linear_48_650" x1="87.8384" y1="195.808" x2="87.8384" y2="87.8158" gradientUnits="userSpaceOnUse">
<stop stop-color="#CCE3E4"/>
<stop offset="1" stop-color="#CCE3E4" stop-opacity="0.13"/>
</linearGradient>
<linearGradient id="paint1_linear_48_650" x1="87.8384" y1="766.308" x2="87.8384" y2="658.316" gradientUnits="userSpaceOnUse">
<stop stop-color="#CCE3E4"/>
<stop offset="1" stop-color="#CCE3E4" stop-opacity="0.13"/>
</linearGradient>
<linearGradient id="paint2_linear_48_650" x1="65" y1="353" x2="65" y2="491" gradientUnits="userSpaceOnUse">
<stop stop-color="#CCE3E4" stop-opacity="0.13"/>
<stop offset="1" stop-color="#CCE3E4"/>
</linearGradient>
<linearGradient id="paint3_linear_48_650" x1="277.25" y1="227.5" x2="277.25" y2="346.525" gradientUnits="userSpaceOnUse">
<stop stop-color="#CCE3E4" stop-opacity="0.13"/>
<stop offset="1" stop-color="#CCE3E4"/>
</linearGradient>
<linearGradient id="paint4_linear_48_650" x1="277.25" y1="227.5" x2="277.25" y2="346.525" gradientUnits="userSpaceOnUse">
<stop stop-color="#CCE3E4" stop-opacity="0.13"/>
<stop offset="1" stop-color="#CCE3E4"/>
</linearGradient>
<linearGradient id="paint5_linear_48_650" x1="303.652" y1="505.865" x2="303.652" y2="587.444" gradientUnits="userSpaceOnUse">
<stop stop-color="#CCE3E4" stop-opacity="0.13"/>
<stop offset="1" stop-color="#CCE3E4"/>
</linearGradient>
<linearGradient id="paint6_linear_48_650" x1="303.652" y1="505.865" x2="303.652" y2="587.444" gradientUnits="userSpaceOnUse">
<stop stop-color="#CCE3E4" stop-opacity="0.13"/>
<stop offset="1" stop-color="#CCE3E4"/>
</linearGradient>
<clipPath id="clip0_48_650">
<rect width="360" height="746" fill="white"/>
</clipPath>
</defs>
</svg>
